<svg xmlns="http://www.w3.org/2000/svg" viewBox="0 0 177 130.83"><defs><style>.cls-1{font-size:35.3px;font-family:CinzelDecorative-Regular, Cinzel Decorative;}.cls-2{letter-spacing:-0.07em;}</style></defs><title>Ativo 2</title><g id="Camada_2" data-name="Camada 2"><g id="OBJECTS"><text class="cls-1" transform="translate(20.65 77.08)">Luxu<tspan class="cls-2" x="92.96" y="0">r</tspan><tspan x="114.39" y="0">y</tspan></text><path d="M99.49,18c0-.11,0-.2,0-.3a3.71,3.71,0,0,0-.11-.58A5.19,5.19,0,0,0,98.22,15a5.35,5.35,0,0,0-2-1.4,5.16,5.16,0,0,0-2.39-.4,5.56,5.56,0,0,0-3.44,1.41c.4-1.29,1.9-4,1.9-5.08S88.5,0,88.5,0s-3.84,8.47-3.84,9.57,1.5,3.79,1.89,5.08a5.55,5.55,0,0,0-3.43-1.41,5.16,5.16,0,0,0-2.39.4,5.47,5.47,0,0,0-2,1.4,5.3,5.3,0,0,0-1.11,2.11,3.73,3.73,0,0,0-.12.58c0,.1,0,.19,0,.3l0,.32a4.28,4.28,0,0,0,.2,1.28,3.94,3.94,0,0,0,1.46,2,3.7,3.7,0,0,0,1.09.54,4.49,4.49,0,0,0,.59.13l.29,0h.32a2.76,2.76,0,0,0,2.13-1.13A2.38,2.38,0,0,0,84,20.15a2.63,2.63,0,0,0,0-.56,1.7,1.7,0,0,0-.13-.56,1.63,1.63,0,0,0-.68-.8,1.37,1.37,0,0,0-.91-.2,1.24,1.24,0,0,1,.78,1.18.82.82,0,0,1-.07.29,1,1,0,0,1-.14.28,1.23,1.23,0,0,1-.41.41,1.15,1.15,0,0,1-.95.14l-.11,0-.13-.05a1.76,1.76,0,0,1-.23-.14,1.46,1.46,0,0,1-.37-.33,1.51,1.51,0,0,1-.35-.84,1.45,1.45,0,0,1,0-.42.44.44,0,0,0,0-.1l0-.13a1.84,1.84,0,0,1,.09-.25,2.48,2.48,0,0,1,1.42-1.37,2.14,2.14,0,0,1,1-.14,4.43,4.43,0,0,1,.56.08,4.17,4.17,0,0,1,.57.18,4.25,4.25,0,0,1,1.89,1.48,4,4,0,0,1,.54,1H86a1.1,1.1,0,0,0-1.09,1.1v.22A1.09,1.09,0,0,0,86,21.71h.62a3.4,3.4,0,0,1-.07.34A3.1,3.1,0,0,1,86,23.24l0,0-.23.27c-.08.08-.16.17-.25.25a3.54,3.54,0,0,1-.58.41,3,3,0,0,1-.69.25,2.38,2.38,0,0,1-.8,0,2,2,0,0,0,.77.41,2.8,2.8,0,0,0,.92.1,3.79,3.79,0,0,0,.93-.21,4.17,4.17,0,0,0,.44-.19l.41-.23,0,0a3.21,3.21,0,0,0,.3-.21A8,8,0,0,0,88.5,28.4a8,8,0,0,0,1.31-4.23,3.37,3.37,0,0,0,.31.21l-.05,0,.42.23a3.43,3.43,0,0,0,.44.19,3.62,3.62,0,0,0,.92.21,2.8,2.8,0,0,0,.92-.1,2,2,0,0,0,.77-.41,2.32,2.32,0,0,1-.79,0,2.89,2.89,0,0,1-.7-.25,3.45,3.45,0,0,1-.57-.41c-.09-.08-.17-.17-.25-.25L91,23.28l0,0a3,3,0,0,1-.54-1.19,3.43,3.43,0,0,1-.06-.34H91a1.09,1.09,0,0,0,1.1-1.09V20.4A1.1,1.1,0,0,0,91,19.3h-.45a4,4,0,0,1,.55-1A4.14,4.14,0,0,1,93,16.78a3.45,3.45,0,0,1,.57-.18,4.29,4.29,0,0,1,.55-.08,2.14,2.14,0,0,1,1,.14A2.43,2.43,0,0,1,96.47,18a1.06,1.06,0,0,1,.09.25l0,.13,0,.1a1.91,1.91,0,0,1,0,.42,1.67,1.67,0,0,1-.35.84,1.35,1.35,0,0,1-.38.33,1.76,1.76,0,0,1-.23.14l-.12.05-.11,0a1.14,1.14,0,0,1-.95-.14,1.26,1.26,0,0,1-.42-.41A2.44,2.44,0,0,1,94,19.5a.83.83,0,0,1-.06-.29A1.22,1.22,0,0,1,94.67,18a1.4,1.4,0,0,0-.92.2,1.63,1.63,0,0,0-.68.8,1.69,1.69,0,0,0-.12.56,2.11,2.11,0,0,0,0,.56,2.38,2.38,0,0,0,.45,1.05,2.72,2.72,0,0,0,2.12,1.13h.32l.29,0a3.87,3.87,0,0,0,.59-.13,3.47,3.47,0,0,0,1.09-.54,4,4,0,0,0,1.47-2,4.27,4.27,0,0,0,.19-1.28Z"/><path d="M71.14,29.54a3.38,3.38,0,0,0,1,3.66,3.52,3.52,0,0,0,3.66.86,4.87,4.87,0,0,0,2.44-6.59,7.4,7.4,0,0,0-6.37-3.95,16.19,16.19,0,0,0-7.68,1.78c-1.23.55-2.42,1.17-3.64,1.76s-2.47,1.14-3.73,1.65A57.36,57.36,0,0,1,49,31.12a53.93,53.93,0,0,1-16.22,1.25,27.06,27.06,0,0,1-8-1.9,14.43,14.43,0,0,1-6.5-5,10.69,10.69,0,0,1-1.67-8,13.14,13.14,0,0,1,3.9-7.18A12,12,0,0,1,28,7a9.28,9.28,0,0,1,4.08.56,7,7,0,0,1,4.55,6.38,5,5,0,0,1-1.52,3.74,5.42,5.42,0,0,1-3.81,1.26,4,4,0,0,1-3.36-2,4,4,0,0,0,3.37,1.88A5.19,5.19,0,0,0,35,17.48a4.71,4.71,0,0,0,1.37-3.58A6.65,6.65,0,0,0,35,10.24a7.59,7.59,0,0,0-7-2.79,11.41,11.41,0,0,0-7,3.3,12.8,12.8,0,0,0-3.65,6.86A10,10,0,0,0,19,25.07a13.69,13.69,0,0,0,6.19,4.71,26.62,26.62,0,0,0,7.74,1.8,53.09,53.09,0,0,0,16-1.16,55.91,55.91,0,0,0,7.69-2.35c2.51-1,4.88-2.21,7.37-3.32a16.72,16.72,0,0,1,8-1.73,7.82,7.82,0,0,1,6.68,4.29,5.15,5.15,0,0,1-2.73,6.93C73.13,35.26,70,32.18,71.14,29.54Z"/><path d="M47,34.18a5.35,5.35,0,0,0-1.34,4.08,6.36,6.36,0,0,0,1.74,3.93,5.55,5.55,0,0,0,3.9,1.64,7.25,7.25,0,0,0,4.1-1.19,6.71,6.71,0,0,0,2.66-3.29,7.85,7.85,0,0,0,.33-4.24,8.54,8.54,0,0,0-1.76-3.88,12.49,12.49,0,0,0-3.34-2.74C50.85,27,48,25.81,46,23.41a6.4,6.4,0,0,1-1.65-4.27A5.2,5.2,0,0,1,46.39,15a3.58,3.58,0,0,1,2.34-.61,3.94,3.94,0,0,1,2.2,1,5.26,5.26,0,0,1,1.72,4.29,6,6,0,0,1-2.34,4,9.33,9.33,0,0,1-4.19,1.85c-3,.5-6-.17-8.94-.52a83.57,83.57,0,0,0-8.81-.62c-2.95-.07-5.9,0-8.85.16a62.23,62.23,0,0,0-8.76.92A14.7,14.7,0,0,0,3.1,29.34,9.61,9.61,0,0,0,.81,33a7.63,7.63,0,0,0-.39,2.11,7.21,7.21,0,0,0,2.64,5.68,4.85,4.85,0,0,0,4.06,1,5.48,5.48,0,0,0,3.32-2.67,4.07,4.07,0,0,0,0-4.19,4.11,4.11,0,0,1,.09,4.24A5.59,5.59,0,0,1,7.16,42a5.11,5.11,0,0,1-4.28-1A7.51,7.51,0,0,1,0,35.08a8.17,8.17,0,0,1,.39-2.24A9.9,9.9,0,0,1,2.74,29a12.83,12.83,0,0,1,3.63-2.66,19.11,19.11,0,0,1,4.25-1.47,57.8,57.8,0,0,1,8.86-1c3-.17,5.93-.26,8.9-.2a85.24,85.24,0,0,1,8.89.59c2.95.35,5.87,1,8.71.49a8.55,8.55,0,0,0,3.85-1.67,5.24,5.24,0,0,0,2.07-3.45A4.53,4.53,0,0,0,50.44,16a2.93,2.93,0,0,0-3.65-.33A4.44,4.44,0,0,0,45,19.16,5.61,5.61,0,0,0,46.51,23c1.84,2.23,4.61,3.43,7.14,5a13.33,13.33,0,0,1,3.45,2.91A9.2,9.2,0,0,1,58.92,35a8.48,8.48,0,0,1-.4,4.49A7,7,0,0,1,55.65,43a7.58,7.58,0,0,1-4.32,1.16,5.79,5.79,0,0,1-4-1.79,6.49,6.49,0,0,1-1.69-4.06A5.42,5.42,0,0,1,47,34.18Z"/><path d="M105.85,29.54c1.12,2.64-2,5.72-4.71,4.7a5.16,5.16,0,0,1-2.73-6.93A7.84,7.84,0,0,1,105.1,23a16.75,16.75,0,0,1,8,1.73c2.48,1.11,4.86,2.36,7.37,3.32a55.49,55.49,0,0,0,7.69,2.35,53,53,0,0,0,16,1.16,26.68,26.68,0,0,0,7.75-1.8,13.74,13.74,0,0,0,6.19-4.71,10,10,0,0,0,1.59-7.46A12.8,12.8,0,0,0,156,10.75a11.38,11.38,0,0,0-7-3.3,7.56,7.56,0,0,0-7,2.79,6.57,6.57,0,0,0-1.31,3.66A4.7,4.7,0,0,0,142,17.48a5.22,5.22,0,0,0,3.67,1.31,4,4,0,0,0,3.37-1.88,4.06,4.06,0,0,1-3.37,2,5.39,5.39,0,0,1-3.8-1.26,5,5,0,0,1-1.52-3.74,7,7,0,0,1,4.54-6.38A9.32,9.32,0,0,1,149,7a12,12,0,0,1,7.41,3.36,13.13,13.13,0,0,1,3.89,7.18,10.65,10.65,0,0,1-1.67,8,14.46,14.46,0,0,1-6.49,5,27.13,27.13,0,0,1-8,1.9A53.84,53.84,0,0,1,128,31.12a56.93,56.93,0,0,1-7.78-2.41c-1.26-.51-2.51-1.05-3.73-1.65s-2.42-1.21-3.64-1.76a16.19,16.19,0,0,0-7.68-1.78,7.43,7.43,0,0,0-6.38,3.95,4.87,4.87,0,0,0,2.45,6.59,3.53,3.53,0,0,0,3.66-.86A3.36,3.36,0,0,0,105.85,29.54Z"/><path d="M130,34.18a5.46,5.46,0,0,1,1.43,4.09,6.5,6.5,0,0,1-1.7,4.06,5.75,5.75,0,0,1-4,1.79A7.6,7.6,0,0,1,121.34,43a7,7,0,0,1-2.86-3.45,8.39,8.39,0,0,1-.41-4.49,9.11,9.11,0,0,1,1.83-4.14A13.16,13.16,0,0,1,123.35,28c2.52-1.56,5.3-2.76,7.14-5A5.7,5.7,0,0,0,132,19.16a4.48,4.48,0,0,0-1.76-3.54,2.92,2.92,0,0,0-3.64.33,4.54,4.54,0,0,0-1.47,3.67,5.28,5.28,0,0,0,2.07,3.45A8.6,8.6,0,0,0,131,24.74c2.84.48,5.77-.14,8.71-.49a85.24,85.24,0,0,1,8.89-.59c3-.06,5.94,0,8.9.2a57.8,57.8,0,0,1,8.86,1,18.93,18.93,0,0,1,4.25,1.47A13,13,0,0,1,174.26,29a10.15,10.15,0,0,1,2.35,3.84,8.15,8.15,0,0,1,.38,2.24A7.44,7.44,0,0,1,174.12,41a5.14,5.14,0,0,1-4.29,1,5.62,5.62,0,0,1-3.36-2.81,4.13,4.13,0,0,1,.09-4.24,4.09,4.09,0,0,0,0,4.19,5.43,5.43,0,0,0,3.32,2.67,4.87,4.87,0,0,0,4.06-1,7,7,0,0,0,2.35-3.55,6.69,6.69,0,0,0-.11-4.24,9.59,9.59,0,0,0-2.28-3.64,14.7,14.7,0,0,0-7.66-3.88,62.21,62.21,0,0,0-8.77-.92c-2.94-.15-5.9-.23-8.84-.16a83.57,83.57,0,0,0-8.81.62c-2.9.35-5.89,1-8.94.52a9.36,9.36,0,0,1-4.2-1.85,6,6,0,0,1-2.34-4,5.27,5.27,0,0,1,1.73-4.29,3.91,3.91,0,0,1,2.19-1,3.58,3.58,0,0,1,2.34.61,5.2,5.2,0,0,1,2.06,4.12A6.39,6.39,0,0,1,131,23.41c-2,2.4-4.88,3.58-7.36,5.08a12.45,12.45,0,0,0-3.33,2.74,8.66,8.66,0,0,0-1.77,3.88,8.05,8.05,0,0,0,.33,4.24,6.71,6.71,0,0,0,2.66,3.29,7.27,7.27,0,0,0,4.1,1.19,5.58,5.58,0,0,0,3.91-1.64,6.3,6.3,0,0,0,1.73-3.93A5.39,5.39,0,0,0,130,34.18Z"/><path d="M164,88.77a3.39,3.39,0,0,1-2.69-1.29,5.23,5.23,0,0,1-1.09-2.86,5.1,5.1,0,0,1,.6-3A5.64,5.64,0,0,1,163,79.49a6.31,6.31,0,0,1,6,.12,10.51,10.51,0,0,1,2.44,1.91,8.44,8.44,0,0,1,2.41,5.61,9.72,9.72,0,0,1-.48,3.08,13,13,0,0,1-3.42,5.15c-3.06,2.89-7.3,4.15-11.41,4.4a70,70,0,0,1-12.36-.71,35.82,35.82,0,0,1-6-1.38c-2-.63-3.92-1.27-5.9-1.79a31,31,0,0,0-12.14-1.11,18.64,18.64,0,0,0-5.82,1.73,13.7,13.7,0,0,0-2.51,1.67,11.21,11.21,0,0,0-2,2.28,5.59,5.59,0,0,0-.66,2.84,13.29,13.29,0,0,0,.35,3,20.5,20.5,0,0,0,2.21,5.65,14.45,14.45,0,0,0,1.76,2.46,6.28,6.28,0,0,0,2.36,1.73c1.83.76,3.85-.91,4.1-2.79a9.2,9.2,0,0,0-1.47-5.68,19,19,0,0,0-3.83-4.69,14,14,0,0,0-2.43-1.78,16,16,0,0,0-2.8-1.14,31.21,31.21,0,0,0-6-1.32,23.36,23.36,0,0,0-12,1.28c-3.74,1.59-6.33,5.08-7.7,8.87a41.75,41.75,0,0,0-2.29,12,15.93,15.93,0,0,0,.81,5.93,5.54,5.54,0,0,0,1.61,2.37,4.34,4.34,0,0,0,5.24,0,5.61,5.61,0,0,0,1.6-2.37,15.73,15.73,0,0,0,.81-5.93,41.08,41.08,0,0,0-2.29-12c-1.37-3.79-3.95-7.28-7.69-8.87a23.38,23.38,0,0,0-12-1.28,31.11,31.11,0,0,0-6,1.32,17.28,17.28,0,0,0-2.8,1.14A14.5,14.5,0,0,0,60.38,103a19.17,19.17,0,0,0-3.82,4.69,9.14,9.14,0,0,0-1.47,5.68c.25,1.88,2.27,3.55,4.09,2.79a6.2,6.2,0,0,0,2.36-1.73,14.45,14.45,0,0,0,1.76-2.46,20.2,20.2,0,0,0,2.21-5.65,13.29,13.29,0,0,0,.35-3,5.59,5.59,0,0,0-.66-2.84,11.1,11.1,0,0,0-2-2.27,13.82,13.82,0,0,0-2.52-1.68,18.66,18.66,0,0,0-5.81-1.73,31,31,0,0,0-12.14,1.11c-2,.52-3.94,1.16-5.9,1.79a36,36,0,0,1-6.05,1.38,70.13,70.13,0,0,1-12.37.71c-4.11-.25-8.34-1.51-11.41-4.4a13,13,0,0,1-3.42-5.15,9.71,9.71,0,0,1-.47-3.08,7.91,7.91,0,0,1,.67-3,8.24,8.24,0,0,1,1.73-2.58A10.57,10.57,0,0,1,8,79.61a6.31,6.31,0,0,1,6-.12,5.61,5.61,0,0,1,2.21,2.14,5,5,0,0,1,.6,3,5.23,5.23,0,0,1-1.09,2.86A3.39,3.39,0,0,1,13,88.77a3.34,3.34,0,0,0,2.67-1.31,5.17,5.17,0,0,0,1.07-2.84,5.08,5.08,0,0,0-.62-3,5.51,5.51,0,0,0-2.2-2.08,6.15,6.15,0,0,0-5.86.16,10.26,10.26,0,0,0-2.4,1.9A8.25,8.25,0,0,0,4,84.17a7.79,7.79,0,0,0-.63,3,9.54,9.54,0,0,0,.48,3,12.75,12.75,0,0,0,3.39,5c3,2.8,7.18,4,11.23,4.22a70,70,0,0,0,12.28-.74,35.78,35.78,0,0,0,6-1.38c2-.63,3.92-1.28,5.92-1.82A31.85,31.85,0,0,1,55,94.28a19.08,19.08,0,0,1,6,1.77,14.74,14.74,0,0,1,2.63,1.73,11.77,11.77,0,0,1,2.06,2.39,6.14,6.14,0,0,1,.75,3.11A13.58,13.58,0,0,1,66,106.4a20.92,20.92,0,0,1-2.25,5.82A14.91,14.91,0,0,1,62,114.78a6.71,6.71,0,0,1-2.58,1.89,3.25,3.25,0,0,1-3.19-.48,4.25,4.25,0,0,1-1.69-2.75A9.72,9.72,0,0,1,56,107.36,19.83,19.83,0,0,1,60,102.5a15,15,0,0,1,2.55-1.86,17,17,0,0,1,2.91-1.2,31.63,31.63,0,0,1,6.08-1.36,24,24,0,0,1,12.33,1.29,13.44,13.44,0,0,1,5,3.8,18.69,18.69,0,0,1,3.09,5.46,35,35,0,0,1,1.64,6,47.16,47.16,0,0,1,.73,6.18,16.43,16.43,0,0,1-.85,6.24,6.29,6.29,0,0,1-1.82,2.69,4.83,4.83,0,0,1-3.12,1.07,4.88,4.88,0,0,1-3.12-1.07,6.32,6.32,0,0,1-1.83-2.69,16.62,16.62,0,0,1-.84-6.24,45.52,45.52,0,0,1,.73-6.18,34.16,34.16,0,0,1,1.64-6,18.66,18.66,0,0,1,3.08-5.46,13.47,13.47,0,0,1,5-3.8,24,24,0,0,1,12.33-1.29,31.8,31.8,0,0,1,6.08,1.36,17.34,17.34,0,0,1,2.91,1.2A15.07,15.07,0,0,1,117,102.5a19.61,19.61,0,0,1,3.93,4.86,9.72,9.72,0,0,1,1.53,6.08,4.21,4.21,0,0,1-1.69,2.75,3.23,3.23,0,0,1-3.18.48,6.71,6.71,0,0,1-2.58-1.89,14.38,14.38,0,0,1-1.83-2.56A20.94,20.94,0,0,1,111,106.4a14.14,14.14,0,0,1-.35-3.12,6.13,6.13,0,0,1,.74-3.11,12.1,12.1,0,0,1,2.07-2.39A14.67,14.67,0,0,1,116,96.05a19.08,19.08,0,0,1,6-1.77,31.83,31.83,0,0,1,12.32,1.15c2,.54,4,1.19,5.92,1.82a35.78,35.78,0,0,0,6,1.38,70.15,70.15,0,0,0,12.28.74c4.05-.21,8.22-1.42,11.24-4.22a12.72,12.72,0,0,0,3.38-5,9.28,9.28,0,0,0,.49-3,8,8,0,0,0-.63-3,8.1,8.1,0,0,0-1.68-2.53,10,10,0,0,0-2.39-1.9,6.17,6.17,0,0,0-5.87-.16,5.42,5.42,0,0,0-2.19,2.08,5.08,5.08,0,0,0-.62,3,5.16,5.16,0,0,0,1.06,2.84A3.36,3.36,0,0,0,164,88.77Z"/><path d="M36,107.67a4.79,4.79,0,0,1-2.54,2.41,6.56,6.56,0,0,1-3.53.41,6,6,0,0,1-5.14-4.5,8.74,8.74,0,0,1,1.35-6.93,9.83,9.83,0,0,1,5.88-4,15.25,15.25,0,0,1,7.17,0,24.66,24.66,0,0,1,6.65,2.75c4.16,2.38,7.81,5.52,12,7.81a22.72,22.72,0,0,0,13.6,3,15.75,15.75,0,0,0,6.69-2.06,8.82,8.82,0,0,0,4.3-5.29A6.59,6.59,0,0,0,74,93.49a5.64,5.64,0,0,0-4.08,5.16,4,4,0,0,0,1.54,3,3.54,3.54,0,0,0,3.33.74,3.59,3.59,0,0,1-3.37-.69,4.09,4.09,0,0,1-1.63-3.1,5.84,5.84,0,0,1,4.13-5.41,6.89,6.89,0,0,1,8.87,8.14,9.17,9.17,0,0,1-4.44,5.54,16,16,0,0,1-6.85,2.17,23.19,23.19,0,0,1-13.89-3c-4.2-2.36-7.83-5.51-11.93-7.9a24.37,24.37,0,0,0-6.52-2.73,14.88,14.88,0,0,0-7,0,9.58,9.58,0,0,0-5.72,3.82,8.57,8.57,0,0,0-1.35,6.7,5.93,5.93,0,0,0,1.75,3A6.11,6.11,0,0,0,30,110.37a6.71,6.71,0,0,0,3.49-.34A4.84,4.84,0,0,0,36,107.67Z"/><path d="M141,107.67a4.86,4.86,0,0,0,2.57,2.36,6.7,6.7,0,0,0,3.49.34,6.19,6.19,0,0,0,3.16-1.46,6,6,0,0,0,1.74-3,8.49,8.49,0,0,0-1.35-6.7,9.53,9.53,0,0,0-5.71-3.82,14.92,14.92,0,0,0-7,0,24.31,24.31,0,0,0-6.51,2.73c-4.11,2.39-7.73,5.54-11.93,7.9a23.2,23.2,0,0,1-13.9,3,16,16,0,0,1-6.84-2.17,9.18,9.18,0,0,1-4.45-5.54,6.9,6.9,0,0,1,8.87-8.14,5.83,5.83,0,0,1,4.13,5.41,4.08,4.08,0,0,1-1.62,3.1,3.59,3.59,0,0,1-3.37.69,3.54,3.54,0,0,0,3.33-.74,4,4,0,0,0,1.53-3A5.62,5.62,0,0,0,103,93.49a6.68,6.68,0,0,0-6.53,1.44,6.61,6.61,0,0,0-1.92,6.37,8.82,8.82,0,0,0,4.3,5.29,15.71,15.71,0,0,0,6.69,2.06,22.7,22.7,0,0,0,13.59-3c4.15-2.29,7.8-5.43,12-7.81a24.59,24.59,0,0,1,6.64-2.75,15.25,15.25,0,0,1,7.17,0,9.88,9.88,0,0,1,5.89,4,8.78,8.78,0,0,1,1.34,6.93,6.23,6.23,0,0,1-1.86,3.07,6.36,6.36,0,0,1-3.27,1.43,6.59,6.59,0,0,1-3.54-.41A4.79,4.79,0,0,1,141,107.67Z"/></g></g></svg>